<svg width="50" height="43" viewBox="0 0 50 43" fill="currentColor" xmlns="http://www.w3.org/2000/svg">
  <path
    d="M44.9026 11.6324H49.7114V14.5049H40.0938V13.9523L40.9068 11.5131L46.7716 5.22941L46.8088 5.18958L46.826 5.13789C46.8758 4.98858 46.8919 4.76739 46.8779 4.53651C46.8635 4.29898 46.8156 4.02392 46.7179 3.75999C46.5225 3.23239 46.1018 2.70099 45.3241 2.70099C44.4979 2.70099 43.9324 3.01368 43.5616 3.48056C43.2505 3.87227 43.0894 4.35586 43.0042 4.80883L40.0938 4.80882V3.43156L40.8808 1.85746L43.292 0.25H46.9347L48.0948 1.02342L49.7114 3.44824V5.42138L48.9128 7.01857L44.7258 11.2056L44.299 11.6324H44.9026ZM27.2891 7.83826H27.7232L27.2891 9.6618V7.83826ZM26.7891 7.83826V11.7618L19.4109 42.75H13.1798L21.4921 7.83826H26.7891ZM27.2891 11.8205L28.2372 7.83826H34.3773V42.75H27.2891V11.8205ZM0.25 7.83826H6.4951V42.75H0.25V7.83826Z"
    fill="currentColor" stroke="currentColor" stroke-width="0.5" />
</svg>